{
	"asset":{
		"generator":"Khronos glTF Blender I/O v4.2.57",
		"version":"2.0"
	},
	"extensionsUsed":[
		"KHR_lights_punctual",
		"KHR_materials_clearcoat"
	],
	"extensionsRequired":[
		"KHR_lights_punctual"
	],
	"extensions":{
		"KHR_lights_punctual":{
			"lights":[
				{
					"color":[
						1,
						1,
						1
					],
					"intensity":54351.41306588226,
					"type":"point",
					"name":"Light"
				},
				{
					"color":[
						1,
						1,
						1
					],
					"intensity":543.5141306588226,
					"type":"point",
					"name":"Point"
				}
			]
		}
	},
	"scene":0,
	"scenes":[
		{
			"name":"Scene",
			"nodes":[
				0,
				1,
				2,
				7
			]
		}
	],
	"nodes":[
		{
			"extensions":{
				"KHR_lights_punctual":{
					"light":0
				}
			},
			"name":"Light",
			"rotation":[
				-0.28416627645492554,
				0.7269423007965088,
				0.34203392267227173,
				0.5232754945755005
			],
			"translation":[
				4.076245307922363,
				5.903861999511719,
				-1.0054539442062378
			]
		},
		{
			"camera":0,
			"name":"Camera",
			"rotation":[
				-0.20997299253940582,
				0.3857799470424652,
				0.09062844514846802,
				0.8937962055206299
			],
			"translation":[
				7.358891487121582,
				4.958309173583984,
				6.925790786743164
			]
		},
		{
			"extensions":{
				"KHR_lights_punctual":{
					"light":1
				}
			},
			"name":"Point",
			"rotation":[
				-0.7071068286895752,
				0,
				0,
				0.7071068286895752
			],
			"translation":[
				-0.029644008725881577,
				0.17390777170658112,
				0.3868008255958557
			]
		},
		{
			"mesh":0,
			"name":"mesh_0"
		},
		{
			"mesh":1,
			"name":"mesh_1"
		},
		{
			"mesh":2,
			"name":"mesh_2"
		},
		{
			"mesh":3,
			"name":"mesh_3"
		},
		{
			"children":[
				3,
				4,
				5,
				6
			],
			"name":"root"
		}
	],
	"cameras":[
		{
			"name":"Camera",
			"perspective":{
				"aspectRatio":1.7777777777777777,
				"yfov":0.39959652046304894,
				"zfar":100,
				"znear":0.10000000149011612
			},
			"type":"perspective"
		}
	],
	"materials":[
		{
			"doubleSided":true,
			"extensions":{
				"KHR_materials_clearcoat":{
					"clearcoatRoughnessFactor":0
				}
			},
			"name":"material_0.003",
			"pbrMetallicRoughness":{
				"baseColorFactor":[
					0.20863686501979828,
					0.20863686501979828,
					0.23839759826660156,
					1
				],
				"metallicFactor":0,
				"roughnessFactor":0.1666666567325592
			}
		},
		{
			"doubleSided":true,
			"extensions":{
				"KHR_materials_clearcoat":{
					"clearcoatFactor":0.11999999731779099,
					"clearcoatRoughnessFactor":1,
					"clearcoatRoughnessTexture":{
						"index":0
					}
				}
			},
			"name":"material_1.003",
			"normalTexture":{
				"index":1
			},
			"pbrMetallicRoughness":{
				"baseColorFactor":[
					0.1119324341416359,
					0.45078131556510925,
					0.9046521186828613,
					1
				],
				"metallicFactor":0,
				"metallicRoughnessTexture":{
					"index":2
				}
			}
		},
		{
			"doubleSided":true,
			"extensions":{
				"KHR_materials_clearcoat":{
					"clearcoatRoughnessFactor":0
				}
			},
			"name":"material_2.003",
			"normalTexture":{
				"index":3
			},
			"pbrMetallicRoughness":{
				"baseColorTexture":{
					"index":4
				},
				"metallicFactor":0,
				"metallicRoughnessTexture":{
					"index":5
				}
			}
		},
		{
			"doubleSided":true,
			"extensions":{
				"KHR_materials_clearcoat":{
					"clearcoatFactor":0.11999999731779099,
					"clearcoatRoughnessFactor":1,
					"clearcoatRoughnessTexture":{
						"index":6
					}
				}
			},
			"name":"material_3.003",
			"normalTexture":{
				"index":7
			},
			"pbrMetallicRoughness":{
				"baseColorFactor":[
					0,
					0,
					0,
					1
				],
				"metallicFactor":0,
				"metallicRoughnessTexture":{
					"index":8
				}
			}
		}
	],
	"meshes":[
		{
			"name":"mesh_0.003",
			"primitives":[
				{
					"attributes":{
						"POSITION":0,
						"NORMAL":1
					},
					"indices":2,
					"material":0
				}
			]
		},
		{
			"name":"mesh_1.003",
			"primitives":[
				{
					"attributes":{
						"POSITION":3,
						"NORMAL":4,
						"TEXCOORD_0":5
					},
					"indices":6,
					"material":1
				}
			]
		},
		{
			"name":"mesh_2.003",
			"primitives":[
				{
					"attributes":{
						"POSITION":7,
						"NORMAL":8,
						"TEXCOORD_0":9
					},
					"indices":10,
					"material":2
				}
			]
		},
		{
			"name":"mesh_3.003",
			"primitives":[
				{
					"attributes":{
						"POSITION":11,
						"NORMAL":12,
						"TEXCOORD_0":13
					},
					"indices":14,
					"material":3
				}
			]
		}
	],
	"textures":[
		{
			"sampler":0,
			"source":0
		},
		{
			"sampler":0,
			"source":1
		},
		{
			"sampler":0,
			"source":2
		},
		{
			"sampler":0,
			"source":3
		},
		{
			"sampler":0,
			"source":4
		},
		{
			"sampler":0,
			"source":5
		},
		{
			"sampler":0,
			"source":6
		},
		{
			"sampler":0,
			"source":7
		},
		{
			"sampler":0,
			"source":8
		}
	],
	"images":[
		{
			"mimeType":"image/png",
			"name":"ddd1cfa1-7d56-40a7-bbc5-ff95d149efd3",
			"uri":"ddd1cfa1-7d56-40a7-bbc5-ff95d149efd3.png"
		},
		{
			"mimeType":"image/png",
			"name":"6e0aa8dc-b25c-4e42-9b93-7f136d9215a8",
			"uri":"6e0aa8dc-b25c-4e42-9b93-7f136d9215a8.png"
		},
		{
			"mimeType":"image/png",
			"name":"544f85ae-f1ca-4384-96d9-3c86ed78959a",
			"uri":"544f85ae-f1ca-4384-96d9-3c86ed78959a.png"
		},
		{
			"mimeType":"image/png",
			"name":"1be5f620-428a-4d97-8286-ce14d06e0a6e",
			"uri":"1be5f620-428a-4d97-8286-ce14d06e0a6e.png"
		},
		{
			"mimeType":"image/png",
			"name":"2f681b2b-caf8-427a-a46e-5b02ae663be9",
			"uri":"2f681b2b-caf8-427a-a46e-5b02ae663be9.png"
		},
		{
			"mimeType":"image/png",
			"name":"9c8dbfa2-8045-456c-8f20-86137b0f97bb",
			"uri":"9c8dbfa2-8045-456c-8f20-86137b0f97bb.png"
		},
		{
			"mimeType":"image/png",
			"name":"5721c5b7-a45c-433f-a522-4162ff532ec2",
			"uri":"5721c5b7-a45c-433f-a522-4162ff532ec2.png"
		},
		{
			"mimeType":"image/png",
			"name":"208e94b7-70bb-41e9-a970-8f1ad31a6b10",
			"uri":"208e94b7-70bb-41e9-a970-8f1ad31a6b10.png"
		},
		{
			"mimeType":"image/png",
			"name":"46779029-ef41-4d2c-991d-4d6260c542ef",
			"uri":"46779029-ef41-4d2c-991d-4d6260c542ef.png"
		}
	],
	"accessors":[
		{
			"bufferView":0,
			"componentType":5126,
			"count":1264,
			"max":[
				0.03448817506432533,
				0.09584522247314453,
				0.03708760440349579
			],
			"min":[
				-0.007604524493217468,
				-0.08345131576061249,
				-0.043991804122924805
			],
			"type":"VEC3"
		},
		{
			"bufferView":1,
			"componentType":5126,
			"count":1264,
			"type":"VEC3"
		},
		{
			"bufferView":2,
			"componentType":5123,
			"count":5631,
			"type":"SCALAR"
		},
		{
			"bufferView":3,
			"componentType":5126,
			"count":17382,
			"max":[
				0.02542651817202568,
				0.08958303928375244,
				0.05001189932227135
			],
			"min":[
				-0.03449076786637306,
				0.029630836099386215,
				-0.009957265108823776
			],
			"type":"VEC3"
		},
		{
			"bufferView":4,
			"componentType":5126,
			"count":17382,
			"type":"VEC3"
		},
		{
			"bufferView":5,
			"componentType":5126,
			"count":17382,
			"type":"VEC2"
		},
		{
			"bufferView":6,
			"componentType":5123,
			"count":71637,
			"type":"SCALAR"
		},
		{
			"bufferView":7,
			"componentType":5126,
			"count":112,
			"max":[
				-0.0016118364874273539,
				0.04732813686132431,
				0.01733207516372204
			],
			"min":[
				-0.0076118409633636475,
				-0.08345131576061249,
				-0.043991804122924805
			],
			"type":"VEC3"
		},
		{
			"bufferView":8,
			"componentType":5126,
			"count":112,
			"type":"VEC3"
		},
		{
			"bufferView":9,
			"componentType":5126,
			"count":112,
			"type":"VEC2"
		},
		{
			"bufferView":10,
			"componentType":5123,
			"count":312,
			"type":"SCALAR"
		},
		{
			"bufferView":11,
			"componentType":5126,
			"count":9201,
			"max":[
				0.015492565929889679,
				-0.06784658133983612,
				0.03973732516169548
			],
			"min":[
				-0.024507425725460052,
				-0.09584657847881317,
				-0.050011955201625824
			],
			"type":"VEC3"
		},
		{
			"bufferView":12,
			"componentType":5126,
			"count":9201,
			"type":"VEC3"
		},
		{
			"bufferView":13,
			"componentType":5126,
			"count":9201,
			"type":"VEC2"
		},
		{
			"bufferView":14,
			"componentType":5123,
			"count":29544,
			"type":"SCALAR"
		}
	],
	"bufferViews":[
		{
			"buffer":0,
			"byteLength":15168,
			"byteOffset":0,
			"target":34962
		},
		{
			"buffer":0,
			"byteLength":15168,
			"byteOffset":15168,
			"target":34962
		},
		{
			"buffer":0,
			"byteLength":11262,
			"byteOffset":30336,
			"target":34963
		},
		{
			"buffer":0,
			"byteLength":208584,
			"byteOffset":41600,
			"target":34962
		},
		{
			"buffer":0,
			"byteLength":208584,
			"byteOffset":250184,
			"target":34962
		},
		{
			"buffer":0,
			"byteLength":139056,
			"byteOffset":458768,
			"target":34962
		},
		{
			"buffer":0,
			"byteLength":143274,
			"byteOffset":597824,
			"target":34963
		},
		{
			"buffer":0,
			"byteLength":1344,
			"byteOffset":741100,
			"target":34962
		},
		{
			"buffer":0,
			"byteLength":1344,
			"byteOffset":742444,
			"target":34962
		},
		{
			"buffer":0,
			"byteLength":896,
			"byteOffset":743788,
			"target":34962
		},
		{
			"buffer":0,
			"byteLength":624,
			"byteOffset":744684,
			"target":34963
		},
		{
			"buffer":0,
			"byteLength":110412,
			"byteOffset":745308,
			"target":34962
		},
		{
			"buffer":0,
			"byteLength":110412,
			"byteOffset":855720,
			"target":34962
		},
		{
			"buffer":0,
			"byteLength":73608,
			"byteOffset":966132,
			"target":34962
		},
		{
			"buffer":0,
			"byteLength":59088,
			"byteOffset":1039740,
			"target":34963
		}
	],
	"samplers":[
		{
			"magFilter":9729,
			"minFilter":9987
		}
	],
	"buffers":[
		{
			"byteLength":1098828,
			"uri":"03.bin"
		}
	]
}
